<svg xmlns="http://www.w3.org/2000/svg" viewBox="0 0 32 32">
  <!-- Background -->
  <rect width="32" height="32" fill="#252627" rx="4"/>
  
  <!-- Vault circle -->
  <circle cx="16" cy="16" r="10" fill="none" stroke="dodgerblue" stroke-width="2"/>
  
  <!-- Vault door detail - inner ring -->
  <circle cx="16" cy="16" r="6" fill="none" stroke="dodgerblue" stroke-width="1.5" opacity="0.7"/>
  
  <!-- Vault handle/dial -->
  <circle cx="16" cy="16" r="2.5" fill="dodgerblue"/>
  
  <!-- Reticle crosshairs -->
  <line x1="16" y1="2" x2="16" y2="8" stroke="dodgerblue" stroke-width="1.5"/>
  <line x1="16" y1="24" x2="16" y2="30" stroke="dodgerblue" stroke-width="1.5"/>
  <line x1="2" y1="16" x2="8" y2="16" stroke="dodgerblue" stroke-width="1.5"/>
  <line x1="24" y1="16" x2="30" y2="16" stroke="dodgerblue" stroke-width="1.5"/>
  
  <!-- Reticle corner marks -->
  <path d="M6 6 L10 6 M6 6 L6 10" fill="none" stroke="dodgerblue" stroke-width="1.5" stroke-linecap="round"/>
  <path d="M26 6 L22 6 M26 6 L26 10" fill="none" stroke="dodgerblue" stroke-width="1.5" stroke-linecap="round"/>
  <path d="M6 26 L10 26 M6 26 L6 22" fill="none" stroke="dodgerblue" stroke-width="1.5" stroke-linecap="round"/>
  <path d="M26 26 L22 26 M26 26 L26 22" fill="none" stroke="dodgerblue" stroke-width="1.5" stroke-linecap="round"/>
</svg>

